<svg width="1349" height="933" viewBox="0 0 1349 933" fill="none" xmlns="http://www.w3.org/2000/svg">
<rect x="118.758" y="606" width="163.17" height="199.482" rx="50" transform="rotate(23.8809 118.758 606)" fill="#AFC8CF" fill-opacity="0.38"/>
<rect x="74" y="42.2314" width="163.17" height="199.482" rx="50" transform="rotate(-15 74 42.2314)" fill="#4D5495" fill-opacity="0.76"/>
<rect x="144.757" y="588.47" width="114.506" height="139.989" rx="10" transform="rotate(-15 144.757 588.47)" fill="#81BBB8" fill-opacity="0.81"/>
<rect x="122.18" y="122" width="71.7736" height="87.7464" rx="10" transform="rotate(41.5326 122.18 122)" fill="#AFC8CF"/>
<rect x="488.537" y="892.329" width="103.868" height="126.983" rx="50" transform="rotate(157.514 488.537 892.329)" fill="#4D5495" fill-opacity="0.76"/>
<path d="M1326.31 564.633C1332.01 567.744 1334.11 574.886 1331 580.584L1330.27 581.92C1327.16 587.618 1320.02 589.716 1314.32 586.604C1308.62 583.493 1306.52 576.352 1309.63 570.654L1310.36 569.318C1313.47 563.619 1320.62 561.522 1326.31 564.633Z" fill="#AFC8CF" fill-opacity="0.47"/>
<path d="M1293.31 704.633C1299.01 707.744 1301.11 714.886 1298 720.584L1297.27 721.92C1294.16 727.618 1287.02 729.716 1281.32 726.604C1275.62 723.493 1273.52 716.352 1276.63 710.654L1277.36 709.318C1280.47 703.619 1287.62 701.522 1293.31 704.633Z" fill="#AFC8CF" fill-opacity="0.47"/>
<rect x="533.143" y="814.703" width="72.8907" height="89.1121" rx="10" transform="rotate(118.633 533.143 814.703)" fill="#81BBB8" fill-opacity="0.81"/>
<rect x="1264.58" y="868.323" width="54.18" height="62.8654" rx="10" transform="rotate(-140.642 1264.58 868.323)" fill="#81BBB8" fill-opacity="0.81"/>
<rect x="174.233" y="856.657" width="45.6886" height="55.8563" rx="10" transform="rotate(175.166 174.233 856.657)" fill="#AFC8CF"/>
<rect x="556.568" y="818.217" width="45.6886" height="55.8563" rx="10" transform="rotate(-150 556.568 818.217)" fill="#AFC8CF"/>
<rect x="1288.11" y="792.589" width="58.7378" height="62.3281" rx="29.3689" transform="rotate(157.514 1288.11 792.589)" fill="#AFC8CF"/>
<rect x="144.537" y="351.329" width="103.868" height="126.983" rx="50" transform="rotate(157.514 144.537 351.329)" fill="#7BA86C" fill-opacity="0.67"/>
<rect x="141.193" y="371.008" width="72.8907" height="89.1121" rx="10" transform="rotate(118.633 141.193 371.008)" fill="#6593B5" fill-opacity="0.88"/>
<rect x="1089.14" y="805.703" width="72.8907" height="89.1121" rx="10" transform="rotate(118.633 1089.14 805.703)" fill="#6593B5" fill-opacity="0.88"/>
<ellipse cx="41.5" cy="22" rx="14.5" ry="12" fill="#FEB975"/>
<ellipse cx="266.5" cy="543" rx="14.5" ry="12" fill="#FEB975"/>
<ellipse cx="1334.5" cy="633" rx="14.5" ry="12" fill="#FEB975"/>
<ellipse cx="467.5" cy="849" rx="14.5" ry="12" fill="#FFDAB6"/>
<ellipse cx="232.5" cy="496" rx="14.5" ry="12" fill="#FFDAB6"/>
<ellipse cx="218" cy="229.5" rx="34" ry="28.5" fill="#FEB975"/>
<ellipse cx="90" cy="652.5" rx="34" ry="28.5" fill="#FFE5CB"/>
<ellipse cx="1081" cy="800.5" rx="34" ry="28.5" fill="#FFE5CB"/>
<ellipse cx="1192.5" cy="868.5" rx="11.5" ry="10.5" fill="#FEB975"/>
</svg>
