<svg width="51" height="51" viewBox="0 0 51 51" fill="none" xmlns="http://www.w3.org/2000/svg">
<g clip-path="url(#clip0_123_119)">
<path d="M21.7812 27.625C21.7812 29.0912 20.5912 30.2812 19.125 30.2812C17.6587 30.2812 16.4688 29.0912 16.4688 27.625C16.4688 26.1588 17.6587 24.9688 19.125 24.9688C20.5912 24.9688 21.7812 26.1588 21.7812 27.625ZM31.875 24.9688C30.4088 24.9688 29.2188 26.1588 29.2188 27.625C29.2188 29.0912 30.4088 30.2812 31.875 30.2812C33.3412 30.2812 34.5312 29.0912 34.5312 27.625C34.5312 26.1588 33.3412 24.9688 31.875 24.9688ZM46.75 25.5C46.75 37.23 37.23 46.75 25.5 46.75C13.77 46.75 4.25 37.23 4.25 25.5C4.25 13.77 13.77 4.25 25.5 4.25C37.23 4.25 46.75 13.77 46.75 25.5ZM22.6525 8.755C25.6275 13.685 31.025 17 37.1875 17C38.165 17 39.1213 16.8938 40.035 16.745C37.06 11.815 31.6625 8.5 25.5 8.5C24.5225 8.5 23.5662 8.60625 22.6525 8.755ZM9.3925 20.1238C13.0262 18.0625 15.8313 14.705 17.17 10.6888C13.5363 12.75 10.7313 16.1075 9.3925 20.1238ZM42.5 25.5C42.5 23.8425 42.245 22.2488 41.7988 20.74C40.3112 21.0588 38.7812 21.25 37.1875 21.25C30.5362 21.25 24.6075 18.19 20.6975 13.4087C18.4662 18.8488 14.025 23.12 8.5 25.2025C8.52125 25.2875 8.5 25.3937 8.5 25.5C8.5 34.8713 16.1287 42.5 25.5 42.5C34.8713 42.5 42.5 34.8713 42.5 25.5Z" fill="white"/>
</g>
<defs>
<clipPath id="clip0_123_119">
<rect width="51" height="51" fill="white"/>
</clipPath>
</defs>
</svg>
